<svg xmlns="http://www.w3.org/2000/svg" xmlns:svg="http://www.w3.org/2000/svg" id="svg3004" width="32" height="32" version="1.1"><metadata id="metadata3009"/><g id="layer1"><path style="fill:#2d2d2d;fill-opacity:1;stroke:none" id="rect4123" d="M 1.4560523,5.4782906 7.0138412,15.513076 c 2.8144142,5.081524 5.6613028,9.04075 5.7022188,9.910304 l 0.22906,4.867979 c 0.0034,0.07193 -0.05796,0.129967 -0.129967,0.129967 l -11.3591007,0 c -0.072002,0 -0.1299669,-0.05797 -0.1299669,-0.129967 l 0,-24.6831015 c 0,-0.072002 0.095082,-0.1929537 0.1299669,-0.1299669 z"/><path style="fill:#2d2d2d;fill-opacity:1;stroke:none" id="rect4123-1" d="M 15.356101,10.677042 9.7938667,24.288428 c -1.7296746,4.232701 -6.3258404,0.0142 -6.2347773,0.698452 l 0.7081164,5.320837 c 0.00754,0.0566 0.055941,0.102823 0.1254401,0.102823 l 10.9634551,0 c 0.06949,0 0.125439,-0.04586 0.125439,-0.102823 l 0,-19.527853 c 0,-0.05696 -0.101348,-0.161777 -0.125439,-0.102822 z"/><path style="fill:#2d2d2d;fill-opacity:1;stroke:none" id="rect4123-1-3" d="M 30.424664,1.4026618 22.375832,16.170098 c -2.576201,4.726634 -3.676557,-1.275924 -3.599407,-0.266202 L 19.877821,30.3187 c 0.0064,0.08352 0.0532,0.151458 0.119309,0.151458 l 10.427534,0 c 0.06609,0 0.119308,-0.06755 0.119308,-0.151458 l 0,-28.7645811 c 0,-0.083902 -0.08342,-0.2172946 -0.119308,-0.1514571 z"/><path style="fill:#2d2d2d;fill-opacity:1;stroke:none" id="rect4123-1-9" d="m 15.453242,10.645468 6.949422,5.395488 c 3.607856,2.801117 5.286249,3.763702 5.205742,4.449188 l -1.149329,9.785998 c -0.0067,0.0567 -0.05552,0.102823 -0.124501,0.102823 l -10.881334,0 c -0.06897,0 -0.1245,-0.04586 -0.1245,-0.102823 l 0,-19.527852 c 0,-0.05696 0.07425,-0.141839 0.1245,-0.102822 z"/><rect style="fill:#2d2d2d;fill-opacity:1;stroke:none" id="rect4198" width="29.221" height="4.483" x="1.326" y="26.506" ry=".13"/><rect style="fill:#2d2d2d;fill-opacity:1;stroke:none" id="rect4200" width=".625" height="17.414" x="15.405" y="11.058" ry=".13"/></g></svg>