<svg xmlns="http://www.w3.org/2000/svg" xmlns:svg="http://www.w3.org/2000/svg" id="svg3004" width="32" height="32" version="1.1"><metadata id="metadata3009"/><g id="layer1"><path style="fill:#2d2d2d;fill-opacity:1;stroke:#2d2d2d;stroke-width:2.08699989;stroke-linecap:round;stroke-linejoin:round;stroke-miterlimit:4;stroke-opacity:1;stroke-dasharray:none;stroke-dashoffset:0" id="path3076" d="m 31.320876,16.086973 a 14.902675,14.902675 0 1 1 -29.8053492,0 14.902675,14.902675 0 1 1 29.8053492,0 z" transform="matrix(1.0033754,0,0,1.0033754,-0.45786282,-0.15012687)"/><path style="fill:#fff;fill-opacity:1;stroke:none" id="path3076-2" d="m 31.320876,16.086973 a 14.902675,14.902675 0 1 1 -29.8053492,0 14.902675,14.902675 0 1 1 29.8053492,0 z" transform="matrix(0.4497835,0,0,0.4497835,14.972242,4.1598441)"/><path style="fill:#fff;fill-opacity:1;stroke:none" id="path3076-2-7-1" d="m 31.320876,16.086973 a 14.902675,14.902675 0 1 1 -29.8053492,0 14.902675,14.902675 0 1 1 29.8053492,0 z" transform="matrix(0.29670695,0,0,0.29670695,3.4542326,5.7786333)"/><path style="fill:#fff;fill-opacity:1;stroke:none" id="path3076-2-7-4" d="m 31.320876,16.086973 a 14.902675,14.902675 0 1 1 -29.8053492,0 14.902675,14.902675 0 1 1 29.8053492,0 z" transform="matrix(0.40784471,0,0,0.40784471,6.9733004,17.209513)"/><path style="fill:#2d2d2d;fill-opacity:1;stroke:none" id="path3076-2-7-4-3" d="m 31.320876,16.086973 a 14.902675,14.902675 0 1 1 -29.8053492,0 14.902675,14.902675 0 1 1 29.8053492,0 z" transform="matrix(0.14363039,0,0,0.14363039,11.204347,18.251922)"/><path style="fill:#2d2d2d;fill-opacity:1;stroke:none" id="path3076-2-7-4-3-8" d="m 31.320876,16.086973 a 14.902675,14.902675 0 1 1 -29.8053492,0 14.902675,14.902675 0 1 1 29.8053492,0 z" transform="matrix(0.14363039,0,0,0.14363039,8.204347,22.314422)"/><path style="fill:#2d2d2d;fill-opacity:1;stroke:none" id="path3076-2-7-4-3-8-9" d="m 31.320876,16.086973 a 14.902675,14.902675 0 1 1 -29.8053492,0 14.902675,14.902675 0 1 1 29.8053492,0 z" transform="matrix(0.122661,0,0,0.122661,12.861127,24.651756)"/><path style="fill:#2d2d2d;fill-opacity:1;stroke:none" id="path3076-2-7-4-3-8-9-9" d="m 31.320876,16.086973 a 14.902675,14.902675 0 1 1 -29.8053492,0 14.902675,14.902675 0 1 1 29.8053492,0 z" transform="matrix(0.17508448,0,0,0.17508448,18.781677,5.4021708)"/><path style="fill:#2d2d2d;fill-opacity:1;stroke:none" id="path3076-2-7-4-3-8-9-9-5" d="m 31.320876,16.086973 a 14.902675,14.902675 0 1 1 -29.8053492,0 14.902675,14.902675 0 1 1 29.8053492,0 z" transform="matrix(0.17508448,0,0,0.17508448,19.500428,11.683421)"/><path style="fill:#2d2d2d;fill-opacity:1;stroke:none" id="path3076-2-7-4-3-8-9-9-5-6" d="m 31.320876,16.086973 a 14.902675,14.902675 0 1 1 -29.8053492,0 14.902675,14.902675 0 1 1 29.8053492,0 z" transform="matrix(0.09959468,0,0,0.09959468,6.1773345,6.8978232)"/><path style="fill:#2d2d2d;fill-opacity:1;stroke:none" id="path3076-2-7-4-3-8-9-9-5-6-7" d="m 31.320876,16.086973 a 14.902675,14.902675 0 1 1 -29.8053492,0 14.902675,14.902675 0 1 1 29.8053492,0 z" transform="matrix(0.09959468,0,0,0.09959468,5.5523345,10.210323)"/><path style="fill:#2d2d2d;fill-opacity:1;stroke:none" id="path3076-2-7-4-3-8-9-9-5-6-7-0" d="m 31.320876,16.086973 a 14.902675,14.902675 0 1 1 -29.8053492,0 14.902675,14.902675 0 1 1 29.8053492,0 z" transform="matrix(0.09959468,0,0,0.09959468,8.8023345,8.897823)"/><path style="fill:#2d2d2d;fill-opacity:1;stroke:none" id="path3076-2-7-4-3-8-9-98" d="m 31.320876,16.086973 a 14.902675,14.902675 0 1 1 -29.8053492,0 14.902675,14.902675 0 1 1 29.8053492,0 z" transform="matrix(0.122661,0,0,0.122661,15.173627,21.214256)"/></g></svg>