<svg xmlns="http://www.w3.org/2000/svg" xmlns:svg="http://www.w3.org/2000/svg" id="svg3004" width="32" height="32" version="1.1"><metadata id="metadata3009"/><g id="layer1"><path style="fill:#2d2d2d;fill-opacity:1;stroke:#2d2d2d;stroke-width:2.08699989;stroke-linecap:round;stroke-linejoin:round;stroke-miterlimit:4;stroke-opacity:1;stroke-dasharray:none;stroke-dashoffset:0" id="path3076" d="m 31.320876,16.086973 a 14.902675,14.902675 0 1 1 -29.8053492,0 14.902675,14.902675 0 1 1 29.8053492,0 z" transform="matrix(1.0033754,0,0,1.0033754,-0.45786282,-0.15012687)"/><path style="fill:#fff;fill-opacity:1;stroke:none" id="path3076-2" d="m 31.320876,16.086973 a 14.902675,14.902675 0 1 1 -29.8053492,0 14.902675,14.902675 0 1 1 29.8053492,0 z" transform="matrix(0.4497835,0,0,0.4497835,4.909742,1.9098441)"/><path style="fill:#fff;fill-opacity:1;stroke:none" id="path3076-2-7" d="m 31.320876,16.086973 a 14.902675,14.902675 0 1 1 -29.8053492,0 14.902675,14.902675 0 1 1 29.8053492,0 z" transform="matrix(0.3260641,0,0,0.3260641,19.034741,5.9938647)"/><path style="fill:#fff;fill-opacity:1;stroke:none" id="path3076-2-7-0" d="m 31.320876,16.086973 a 14.902675,14.902675 0 1 1 -29.8053492,0 14.902675,14.902675 0 1 1 29.8053492,0 z" transform="matrix(0.21492633,0,0,0.21492633,22.703173,16.937986)"/><path style="fill:#fff;fill-opacity:1;stroke:none" id="path3076-2-7-1" d="m 31.320876,16.086973 a 14.902675,14.902675 0 1 1 -29.8053492,0 14.902675,14.902675 0 1 1 29.8053492,0 z" transform="matrix(0.21492633,0,0,0.21492633,1.2656733,13.562986)"/><path style="fill:#fff;fill-opacity:1;stroke:none" id="path3076-2-7-4" d="m 31.320876,16.086973 a 14.902675,14.902675 0 1 1 -29.8053492,0 14.902675,14.902675 0 1 1 29.8053492,0 z" transform="matrix(0.46026819,0,0,0.46026819,7.9563512,16.459928)"/></g></svg>