<svg xmlns="http://www.w3.org/2000/svg" xmlns:svg="http://www.w3.org/2000/svg" id="svg3004" width="32" height="32" version="1.1"><metadata id="metadata3009"/><g id="layer1"><rect style="fill:none;stroke:#2d2d2d;stroke-width:1.09287596;stroke-miterlimit:4;stroke-opacity:1;stroke-dasharray:none" id="rect3012-6-7-4" width="20.525" height="4.48" x="-29.651" y="2.644" ry=".118" transform="matrix(0,-1,1,0,0,0)"/><rect style="fill:#2d2d2d;fill-opacity:1;stroke:none" id="rect3012-6-7" width="10.346" height="4.48" x="-29.766" y="2.644" ry=".118" transform="matrix(0,-1,1,0,0,0)"/><rect style="fill:none;stroke:#2d2d2d;stroke-width:1.09287596;stroke-miterlimit:4;stroke-opacity:1;stroke-dasharray:none" id="rect3012-6-7-4-7" width="14.943" height="4.48" x="-29.564" y="9.775" ry=".118" transform="matrix(0,-1,1,0,0,0)"/><rect style="fill:#2d2d2d;fill-opacity:1;stroke:none" id="rect3012-6-7-2" width="7.182" height="4.48" x="-29.679" y="9.775" ry=".118" transform="matrix(0,-1,1,0,0,0)"/><rect style="fill:none;stroke:#2d2d2d;stroke-width:1.09287596;stroke-miterlimit:4;stroke-opacity:1;stroke-dasharray:none" id="rect3012-6-7-4-7-0" width="27.203" height="4.48" x="-29.591" y="17.079" ry=".118" transform="matrix(0,-1,1,0,0,0)"/><rect style="fill:#2d2d2d;fill-opacity:1;stroke:none" id="rect3012-6-7-2-4" width="18.339" height="4.48" x="-29.706" y="17.079" ry=".118" transform="matrix(0,-1,1,0,0,0)"/><rect style="fill:none;stroke:#2d2d2d;stroke-width:1.09287596;stroke-miterlimit:4;stroke-opacity:1;stroke-dasharray:none" id="rect3012-6-7-4-7-7" width="23.299" height="4.48" x="-29.591" y="24.555" ry=".118" transform="matrix(0,-1,1,0,0,0)"/><rect style="fill:#2d2d2d;fill-opacity:1;stroke:none" id="rect3012-6-7-2-0" width="16.959" height="4.48" x="-29.706" y="24.555" ry=".118" transform="matrix(0,-1,1,0,0,0)"/></g></svg>